REM DIRINDEX 1\2,1\3,1\4,1\5,1\6
REM DIRNAME cjc030,folder01,folder02,folder03,folder04,folder05
TITLE ""
FILE "Disc4Track52.mp3" MP3
  TRACK 01 AUDIO
    TITLE "3:cjc030_07633"
    INDEX 01 00:00:00
  TRACK 02 AUDIO
    TITLE "0:"
    INDEX 01 00:01:11
  TRACK 03 AUDIO
    TITLE "4:cjc030_07634"
    INDEX 01 00:01:19
  TRACK 04 AUDIO
    TITLE "0:"
    INDEX 01 00:02:10
  TRACK 05 AUDIO
    TITLE "5:cjc030_07635"
    INDEX 01 00:02:20
  TRACK 06 AUDIO
    TITLE "0:"
    INDEX 01 00:03:35
  TRACK 07 AUDIO
    TITLE "3:cjc030_07636"
    INDEX 01 00:04:11
  TRACK 08 AUDIO
    TITLE "0:"
    INDEX 01 00:05:20
  TRACK 09 AUDIO
    TITLE "4:cjc030_07637"
    INDEX 01 00:05:26
  TRACK 10 AUDIO
    TITLE "0:"
    INDEX 01 00:07:47
  TRACK 11 AUDIO
    TITLE "5:cjc030_07638"
    INDEX 01 00:07:56
  TRACK 12 AUDIO
    TITLE "0:"
    INDEX 01 00:08:62
  TRACK 13 AUDIO
    TITLE "6:cjc030_07639"
    INDEX 01 00:09:00
  TRACK 14 AUDIO
    TITLE "0:"
    INDEX 01 00:14:43
  TRACK 15 AUDIO
    TITLE "3:cjc030_07640"
    INDEX 01 00:15:19
  TRACK 16 AUDIO
    TITLE "0:"
    INDEX 01 00:16:28
  TRACK 17 AUDIO
    TITLE "4:cjc030_07641"
    INDEX 01 00:16:34
  TRACK 18 AUDIO
    TITLE "0:"
    INDEX 01 00:17:39
  TRACK 19 AUDIO
    TITLE "5:cjc030_07642"
    INDEX 01 00:17:47
  TRACK 20 AUDIO
    TITLE "0:"
    INDEX 01 00:18:58
  TRACK 21 AUDIO
    TITLE "3:cjc030_07643"
    INDEX 01 00:19:38
  TRACK 22 AUDIO
    TITLE "0:"
    INDEX 01 00:20:45
  TRACK 23 AUDIO
    TITLE "4:cjc030_07644"
    INDEX 01 00:20:53
  TRACK 24 AUDIO
    TITLE "0:"
    INDEX 01 00:23:24
  TRACK 25 AUDIO
    TITLE "5:cjc030_07645"
    INDEX 01 00:23:32
  TRACK 26 AUDIO
    TITLE "0:"
    INDEX 01 00:24:43
  TRACK 27 AUDIO
    TITLE "3:cjc030_07646"
    INDEX 01 00:25:25
  TRACK 28 AUDIO
    TITLE "0:"
    INDEX 01 00:26:28
  TRACK 29 AUDIO
    TITLE "4:cjc030_07647"
    INDEX 01 00:26:38
  TRACK 30 AUDIO
    TITLE "0:"
    INDEX 01 00:27:41
  TRACK 31 AUDIO
    TITLE "5:cjc030_07648"
    INDEX 01 00:27:51
  TRACK 32 AUDIO
    TITLE "0:"
    INDEX 01 00:28:59
  TRACK 33 AUDIO
    TITLE "3:cjc030_07649"
    INDEX 01 00:29:38
  TRACK 34 AUDIO
    TITLE "0:"
    INDEX 01 00:30:46
  TRACK 35 AUDIO
    TITLE "4:cjc030_07650"
    INDEX 01 00:30:54
  TRACK 36 AUDIO
    TITLE "0:"
    INDEX 01 00:32:29
  TRACK 37 AUDIO
    TITLE "5:cjc030_07651"
    INDEX 01 00:32:37
  TRACK 38 AUDIO
    TITLE "0:"
    INDEX 01 00:33:44
  TRACK 39 AUDIO
    TITLE "3:cjc030_07652"
    INDEX 01 00:34:24
  TRACK 40 AUDIO
    TITLE "0:"
    INDEX 01 00:35:49
  TRACK 41 AUDIO
    TITLE "4:cjc030_07653"
    INDEX 01 00:35:55
  TRACK 42 AUDIO
    TITLE "0:"
    INDEX 01 00:36:74
  TRACK 43 AUDIO
    TITLE "5:cjc030_07654"
    INDEX 01 00:37:08
  TRACK 44 AUDIO
    TITLE "0:"
    INDEX 01 00:38:31
  TRACK 45 AUDIO
    TITLE "6:cjc030_07655"
    INDEX 01 00:38:43
  TRACK 46 AUDIO
    TITLE "0:"
    INDEX 01 00:47:30
  TRACK 47 AUDIO
    TITLE "3:cjc030_07656"
    INDEX 01 00:48:04
  TRACK 48 AUDIO
    TITLE "0:"
    INDEX 01 00:49:20
  TRACK 49 AUDIO
    TITLE "4:cjc030_07657"
    INDEX 01 00:49:27
  TRACK 50 AUDIO
    TITLE "0:"
    INDEX 01 00:50:21
  TRACK 51 AUDIO
    TITLE "5:cjc030_07658"
    INDEX 01 00:50:29
  TRACK 52 AUDIO
    TITLE "0:"
    INDEX 01 00:51:44
  TRACK 53 AUDIO
    TITLE "3:cjc030_07659"
    INDEX 01 00:52:26
  TRACK 54 AUDIO
    TITLE "0:"
    INDEX 01 00:53:43
  TRACK 55 AUDIO
    TITLE "4:cjc030_07660"
    INDEX 01 00:53:49
  TRACK 56 AUDIO
    TITLE "0:"
    INDEX 01 00:54:42
  TRACK 57 AUDIO
    TITLE "5:cjc030_07661"
    INDEX 01 00:54:50
  TRACK 58 AUDIO
    TITLE "0:"
    INDEX 01 00:55:67
  TRACK 59 AUDIO
    TITLE "6:cjc030_07662"
    INDEX 01 00:56:06
  TRACK 60 AUDIO
    TITLE "0:"
    INDEX 01 00:59:04
  TRACK 61 AUDIO
    TITLE "3:cjc030_07663"
    INDEX 01 00:59:49
  TRACK 62 AUDIO
    TITLE "0:"
    INDEX 01 01:00:49
  TRACK 63 AUDIO
    TITLE "4:cjc030_07664"
    INDEX 01 01:00:55
  TRACK 64 AUDIO
    TITLE "0:"
    INDEX 01 01:01:50
  TRACK 65 AUDIO
    TITLE "5:cjc030_07665"
    INDEX 01 01:01:58
  TRACK 66 AUDIO
    TITLE "0:"
    INDEX 01 01:02:57
  TRACK 67 AUDIO
    TITLE "3:cjc030_07666"
    INDEX 01 01:03:35
  TRACK 68 AUDIO
    TITLE "0:"
    INDEX 01 01:04:48
  TRACK 69 AUDIO
    TITLE "4:cjc030_07667"
    INDEX 01 01:04:56
  TRACK 70 AUDIO
    TITLE "0:"
    INDEX 01 01:05:58
  TRACK 71 AUDIO
    TITLE "5:cjc030_07668"
    INDEX 01 01:05:68
  TRACK 72 AUDIO
    TITLE "0:"
    INDEX 01 01:07:04
  TRACK 73 AUDIO
    TITLE "6:cjc030_07669"
    INDEX 01 01:07:17
  TRACK 74 AUDIO
    TITLE "0:"
    INDEX 01 01:08:62
  TRACK 75 AUDIO
    TITLE "3:cjc030_07670"
    INDEX 01 01:09:32
  TRACK 76 AUDIO
    TITLE "0:"
    INDEX 01 01:10:45
  TRACK 77 AUDIO
    TITLE "4:cjc030_07671"
    INDEX 01 01:10:53
  TRACK 78 AUDIO
    TITLE "0:"
    INDEX 01 01:12:50
  TRACK 79 AUDIO
    TITLE "5:cjc030_07672"
    INDEX 01 01:12:58
  TRACK 80 AUDIO
    TITLE "0:"
    INDEX 01 01:13:71
  TRACK 81 AUDIO
    TITLE "6:cjc030_07673"
    INDEX 01 01:14:10
  TRACK 82 AUDIO
    TITLE "0:"
    INDEX 01 01:15:62
  TRACK 83 AUDIO
    TITLE "3:cjc030_07674"
    INDEX 01 01:16:30
  TRACK 84 AUDIO
    TITLE "0:"
    INDEX 01 01:17:53
  TRACK 85 AUDIO
    TITLE "4:cjc030_07675"
    INDEX 01 01:17:59
  TRACK 86 AUDIO
    TITLE "0:"
    INDEX 01 01:18:53
  TRACK 87 AUDIO
    TITLE "5:cjc030_07676"
    INDEX 01 01:18:62
  TRACK 88 AUDIO
    TITLE "0:"
    INDEX 01 01:20:08
  TRACK 89 AUDIO
    TITLE "6:cjc030_07677"
    INDEX 01 01:20:20
  TRACK 90 AUDIO
    TITLE "0:"
    INDEX 01 01:22:11
  TRACK 91 AUDIO
    TITLE "3:cjc030_07678"
    INDEX 01 01:22:58
  TRACK 92 AUDIO
    TITLE "0:"
    INDEX 01 01:24:12
  TRACK 93 AUDIO
    TITLE "4:cjc030_07679"
    INDEX 01 01:24:20
  TRACK 94 AUDIO
    TITLE "0:"
    INDEX 01 01:26:03
  TRACK 95 AUDIO
    TITLE "5:cjc030_07680"
    INDEX 01 01:26:11
  TRACK 96 AUDIO
    TITLE "0:"
    INDEX 01 01:27:38
  TRACK 97 AUDIO
    TITLE "3:cjc030_07681"
    INDEX 01 01:28:22
  TRACK 98 AUDIO
    TITLE "0:"
    INDEX 01 01:29:54
  TRACK 99 AUDIO
    TITLE "4:cjc030_07682"
    INDEX 01 01:29:62
  TRACK 100 AUDIO
    TITLE "0:"
    INDEX 01 01:31:06
  TRACK 101 AUDIO
    TITLE "5:cjc030_07683"
    INDEX 01 01:31:10
  TRACK 102 AUDIO
    TITLE "0:"
    INDEX 01 01:32:49
